HIERARCHY
ROOT Hips
{
	OFFSET -246.377396 91.733124 -540.268188
	CHANNELS 6 Xposition Yposition Zposition Zrotation Yrotation Xrotation 
	JOINT LeftUpLeg
	{
		OFFSET 0.103454 1.857841 10.548504
		CHANNELS 3 Zrotation Yrotation Xrotation
		JOINT LeftLeg
		{
			OFFSET 43.499992 -0.000061 0.000000
			CHANNELS 3 Zrotation Yrotation Xrotation
			JOINT LeftFoot
			{
				OFFSET 42.372196 0.000008 -0.000002
				CHANNELS 3 Zrotation Yrotation Xrotation
				JOINT LeftToe
				{
					OFFSET 17.300022 0.000011 0.000012
					CHANNELS 3 Zrotation Yrotation Xrotation
					End Site
					{
						OFFSET 0.000000 0.000000 0.000000
					}
				}
			}
		}
	}
	JOINT RightUpLeg
	{
		OFFSET 0.103458 1.857820 -10.548491
		CHANNELS 3 Zrotation Yrotation Xrotation
		JOINT RightLeg
		{
			OFFSET 43.500046 0.000015 0.000006
			CHANNELS 3 Zrotation Yrotation Xrotation
			JOINT RightFoot
			{
				OFFSET 42.372269 -0.000046 0.000017
				CHANNELS 3 Zrotation Yrotation Xrotation
				JOINT RightToe
				{
					OFFSET 17.300032 0.000011 0.000015
					CHANNELS 3 Zrotation Yrotation Xrotation
					End Site
					{
						OFFSET 0.000000 0.000000 0.000000
					}
				}
			}
		}
	}
	JOINT Spine
	{
		OFFSET 6.901962 -2.603707 -0.000004
		CHANNELS 3 Zrotation Yrotation Xrotation
		JOINT Spine1
		{
			OFFSET 12.588104 -0.000004 -0.000001
			CHANNELS 3 Zrotation Yrotation Xrotation
			JOINT Spine2
			{
				OFFSET 12.343199 -0.000026 0.000003
				CHANNELS 3 Zrotation Yrotation Xrotation
				JOINT Neck
				{
					OFFSET 25.832890 0.000004 -0.000006
					CHANNELS 3 Zrotation Yrotation Xrotation
					JOINT Head
					{
						OFFSET 11.766623 0.000031 0.000004
						CHANNELS 3 Zrotation Yrotation Xrotation
						End Site
						{
							OFFSET 0.000000 0.000000 0.000000
						}
					}
				}
				JOINT LeftShoulder
				{
					OFFSET 19.745897 -1.480345 6.000100
					CHANNELS 3 Zrotation Yrotation Xrotation
					JOINT LeftArm
					{
						OFFSET 11.284126 0.000003 -0.000015
						CHANNELS 3 Zrotation Yrotation Xrotation
						JOINT LeftForeArm
						{
							OFFSET 33.000057 -0.000023 0.000027
							CHANNELS 3 Zrotation Yrotation Xrotation
							JOINT LeftHand
							{
								OFFSET 25.199987 0.000051 0.000021
								CHANNELS 3 Zrotation Yrotation Xrotation
								End Site
								{
									OFFSET 0.000000 0.000000 0.000000
								}
							}
						}
					}
				}
				JOINT RightShoulder
				{
					OFFSET 19.746086 -1.480362 -6.000076
					CHANNELS 3 Zrotation Yrotation Xrotation
					JOINT RightArm
					{
						OFFSET 11.284140 0.000004 -0.000015
						CHANNELS 3 Zrotation Yrotation Xrotation
						JOINT RightForeArm
						{
							OFFSET 33.000084 -0.000023 0.000011
							CHANNELS 3 Zrotation Yrotation Xrotation
							JOINT RightHand
							{
								OFFSET 25.199789 0.000148 0.000422
								CHANNELS 3 Zrotation Yrotation Xrotation
								End Site
								{
									OFFSET 0.000000 0.000000 0.000000
								}
							}
						}
					}
				}
			}
		}
	}
}
MOTION
Frames: 5
Frame Time: 0.033333
-280.390411 87.230103 222.065399 82.184408 2.229856 -167.485405 143.865258 -7.775206 171.064793 -42.024201 -2.204806 -6.078241 77.464276 3.511149 -3.119084 21.454553 0.003087 -0.000000 144.214212 3.735596 -166.419868 -40.234640 1.049129 6.277939 80.384783 -4.691566 -1.125153 21.454560 -0.003108 -0.000018 12.381203 -0.303465 0.907503 14.744283 -0.720266 1.768847 14.426326 -0.709436 1.773173 25.490722 -12.122248 -5.821180 -11.317530 14.286288 -9.993072 157.997343 -81.630241 20.678212 -43.411590 27.302196 -21.617820 -65.289109 -18.645887 2.554283 -2.852869 -13.468857 45.441706 167.342271 78.856904 -11.365901 -18.464149 -45.590676 -6.542933 -55.516010 18.448981 -2.200517 1.373656 -1.846667 -27.596036 
-281.362701 86.040443 221.904404 81.540397 2.577836 -168.635308 140.586098 -8.665101 171.754177 -46.150294 -2.896141 -6.626137 79.080921 3.935517 -3.115332 21.454551 0.003090 -0.000001 140.843145 3.564407 -166.274480 -43.817299 0.399849 5.802962 81.276669 -4.322380 -1.133655 21.454557 -0.003108 -0.000017 12.917517 -0.161887 0.827978 15.819189 -0.435632 1.625955 15.501222 -0.425669 1.628567 24.870392 -11.853033 -5.923450 -12.172341 14.158583 -10.257889 151.782376 -82.219488 26.925186 -42.145737 27.272718 -22.238495 -67.511830 -18.094918 2.605777 -6.657630 -14.853512 46.244909 164.443129 79.239374 -14.295349 -21.820935 -42.491283 -3.321230 -57.354526 18.359142 -2.261340 0.492838 1.111360 -29.526635 
-282.253387 84.814491 221.697601 81.025906 2.735786 -169.812013 137.725164 -9.647400 171.141031 -50.016307 -3.038720 -6.591107 80.636039 3.989929 -2.875670 21.454550 0.003084 0.000000 137.733715 3.493804 -166.741652 -47.275673 0.203796 5.550396 82.172230 -4.127641 -1.172325 21.454558 -0.003106 -0.000017 13.474753 -0.020598 0.815143 16.935548 -0.160459 1.618411 16.617598 -0.150550 1.619363 24.631016 -11.991650 -6.283518 -13.401241 14.506185 -10.948349 141.675595 -82.643233 37.090687 -41.471823 27.551125 -22.609641 -68.040842 -17.860572 2.611013 -8.519351 -14.748229 46.895239 160.942589 79.841059 -17.820501 -24.486025 -39.967870 -0.553190 -58.472976 18.345594 -2.301927 -0.876086 5.230085 -28.984649 
-283.081787 83.548576 221.481903 80.206420 2.600119 -170.956179 134.850296 -10.508696 170.134152 -53.595781 -3.150728 -6.431108 82.087256 3.969903 -2.543544 21.454553 0.003088 0.000000 134.329467 3.647095 -167.654889 -50.809234 0.244055 5.415003 83.118198 -4.021612 -1.219847 21.454558 -0.003108 -0.000017 13.938567 0.063356 0.762989 17.864315 0.007981 1.526545 17.546351 0.017337 1.526482 24.387378 -12.211950 -6.648467 -14.394970 14.797781 -11.596840 130.382956 -82.806987 48.444517 -41.010013 27.889326 -22.726507 -67.649486 -17.753284 2.587459 -7.143533 -12.082293 48.356715 157.029396 80.039538 -21.776257 -26.663611 -37.129547 0.856837 -58.593031 17.946576 -2.279139 -1.902206 11.350064 -25.215776 
-283.852112 82.205276 221.242798 79.063954 2.297241 -171.889101 131.731154 -11.163405 169.032074 -57.095426 -3.168204 -6.238145 83.497915 3.921715 -2.191080 21.454551 0.003089 -0.000000 130.569830 4.097594 -168.392276 -54.498486 0.248558 5.190164 84.134810 -3.859673 -1.316355 21.454558 -0.003104 -0.000017 14.246113 0.137771 0.646987 18.480369 0.170290 1.307624 18.162381 0.178319 1.306587 24.070606 -12.143642 -7.130112 -14.964608 14.503581 -12.127739 119.472521 -82.615762 59.420337 -40.660113 27.871403 -21.785824 -66.203357 -17.983810 2.544837 -3.880592 -7.911564 50.749726 154.817576 80.195485 -24.007915 -28.986244 -34.485564 0.816474 -57.398451 17.620423 -2.212644 -2.781755 16.851547 -20.269829 
